# xmcd CD database file
#
# Track frame offsets:
#	150
#	13688
#	26765
#	43663
#	60113
#	76415
#	90448
#	103103
#	116968
#	134898
#
# Disc length: 2045 seconds
#
# Revision: 0
# Processed by: cddbd v1.5PL3 Copyright (c) Steve Scherf et al.
# Submitted via: CDex 1.51
#
DISCID=8107fb0a
DTITLE=Inst. - CLASSICAL PIANO SOLO SERIES -CHAGE&ASKAメロディー集-
DYEAR=1989
DGENRE=Instrumental
TTITLE0=恋人はワイン色 (フォーレ風)
TTITLE1=どのくらい“I love you” (モーツァルト風)
TTITLE2=モーニングムーン (メンデルスゾーン風)
TTITLE3=LOVE SONG (リスト風)
TTITLE4=Trip (ブラームス風)
TTITLE5=指環が泣いた (チャイコフスキー風)
TTITLE6=TEKU TEKU (ショパン風)
TTITLE7=Newsにならない恋 (バッハ風)
TTITLE8=黄昏を待たずに (ラヴェル風)
TTITLE9=狂想曲(ラプソディ) (ラフマニノフ風)
EXTD=YEAR: 1989
EXTT0=
EXTT1=
EXTT2=
EXTT3=
EXTT4=
EXTT5=
EXTT6=
EXTT7=
EXTT8=
EXTT9=
PLAYORDER=
